<svg version="1.1" xmlns="http://www.w3.org/2000/svg" xmlns:xlink="http://www.w3.org/1999/xlink" viewBox="0 0 172 172"><g fill="none" fill-rule="nonzero" stroke="none" stroke-width="1" stroke-linecap="butt" stroke-linejoin="miter" stroke-miterlimit="10" stroke-dasharray="" stroke-dashoffset="0" font-family="none" font-weight="none" font-size="none" text-anchor="none" style="mix-blend-mode: normal"><path d="M0,172v-172h172v172z" fill="none"></path><g><path d="M35.83333,25.08333h100.33333v25.08333h-100.33333z" fill="#3498db"></path><path d="M35.83333,75.25h-14.33333v-28.66667l14.33333,-21.5zM136.16667,75.25h14.33333v-28.66667l-14.33333,-21.5z" fill="#633d70"></path><path d="M143.33333,146.91667h-114.66667c-3.94167,0 -7.16667,-3.225 -7.16667,-7.16667v-93.16667h129v93.16667c0,3.94167 -3.225,7.16667 -7.16667,7.16667z" fill="#9b59b6"></path><path d="M98.54167,71.66667h-25.08333c-2.86667,0 -5.375,-2.50833 -5.375,-5.375v0c0,-2.86667 2.50833,-5.375 5.375,-5.375h25.08333c2.86667,0 5.375,2.50833 5.375,5.375v0c0,2.86667 -2.50833,5.375 -5.375,5.375z" fill="#633d70"></path></g></g></svg>