<svg width="64" height="64" viewBox="0 0 64 64" fill="none" xmlns="http://www.w3.org/2000/svg">
<path d="M29.3912 15.4608L30.4135 16.5342L17.8507 28.5H54C55.9324 28.5 57.5 30.0676 57.5 32C57.5 33.9324 55.9324 35.5 54 35.5H17.7991L30.4123 47.4637L30.4146 47.4659C31.814 48.7988 31.8687 51.0129 30.5356 52.413C29.8475 53.1362 28.921 53.5 28 53.5C27.1342 53.5 26.263 53.1792 25.5859 52.5336L8.17248 35.9482L8.1596 35.9359L8.14701 35.9233C7.08235 34.86 6.5 33.476 6.5 32C6.5 30.5322 7.07572 29.1473 8.11064 28.111L8.12387 28.0978L8.13742 28.0849L25.5854 11.4649L25.5861 11.4642C26.9871 10.1314 29.2021 10.1869 30.5341 11.5855L29.3912 15.4608ZM29.3912 15.4608L30.4135 16.5341C31.8132 15.201 31.8677 12.9856 30.5342 11.5855L29.3912 15.4608Z" fill="white" stroke="white" stroke-width="3"/>
</svg>
