<svg width="64" height="64" viewBox="0 0 64 64" fill="none" xmlns="http://www.w3.org/2000/svg">
<path d="M8.72844 3.56865L7.66777 4.62931L8.72843 3.56865C7.3036 2.14382 4.9934 2.14372 3.56858 3.56872C2.14406 4.99342 2.14364 7.30353 3.56865 8.72843C3.56867 8.72846 3.5687 8.72848 3.56872 8.7285L26.3406 31.5003L3.56865 54.2723C2.14382 55.6972 2.14372 58.0074 3.56872 59.4322C4.28094 60.1444 5.21737 60.5006 6.1486 60.5006C7.07997 60.5006 8.01621 60.1443 8.72841 59.4323L8.72854 59.4321L31.5003 36.6602L54.2722 59.4321C54.9845 60.1444 55.9209 60.5006 56.8522 60.5006C57.7836 60.5006 58.7198 60.1443 59.432 59.4323L59.4321 59.4321C60.8569 58.0073 60.8571 55.6972 59.4321 54.2723C59.4321 54.2723 59.4321 54.2723 59.4321 54.2723L36.6602 31.5004L59.4321 8.72843C60.857 7.3036 60.8571 4.9934 59.4321 3.56858C58.0073 2.14404 55.6972 2.14364 54.2723 3.56872L31.5003 26.3407L8.72844 3.56865Z" fill="white" stroke="white" stroke-width="3"/>
</svg>
