<svg version="1.1" xmlns="http://www.w3.org/2000/svg" xmlns:xlink="http://www.w3.org/1999/xlink" viewBox="0 0 172 172"><g fill="none" fill-rule="nonzero" stroke="none" stroke-width="1" stroke-linecap="butt" stroke-linejoin="miter" stroke-miterlimit="10" stroke-dasharray="" stroke-dashoffset="0" font-family="none" font-weight="none" font-size="none" text-anchor="none" style="mix-blend-mode: normal"><g fill="#000000"><path d="M150.36003,14.26335c-1.86189,0.05548 -3.62905,0.83363 -4.92708,2.1696l-10.49805,10.49805l-6.29883,-6.29883c-8.11267,-8.11983 -22.28251,-8.127 -30.40235,0l-15.81706,15.81706l-5.68294,-5.68294c-1.34928,-1.38698 -3.20203,-2.16948 -5.13704,-2.1696c-2.91628,0.00077 -5.54133,1.76841 -6.63871,4.47035c-1.09737,2.70194 -0.44825,5.79937 1.64164,7.83336l12.84961,12.84961l-12.84961,12.84961c-1.8722,1.79752 -2.62637,4.46674 -1.97164,6.97823c0.65473,2.51149 2.61604,4.4728 5.12753,5.12753c2.51149,0.65473 5.18071,-0.09944 6.97823,-1.97164l12.84961,-12.84961l18.53256,18.53255l-12.84961,12.84961c-1.87223,1.79752 -2.62641,4.46675 -1.97168,6.97825c0.65472,2.5115 2.61605,4.47282 5.12755,5.12755c2.5115,0.65472 5.18073,-0.09946 6.97825,-1.97168l12.84961,-12.84961l12.84961,12.84961c1.79752,1.87223 4.46675,2.62641 6.97825,1.97168c2.5115,-0.65472 4.47282,-2.61605 5.12755,-5.12755c0.65472,-2.5115 -0.09946,-5.18073 -1.97168,-6.97825l-5.68294,-5.68294l15.81706,-15.81706c8.385,-8.385 8.385,-22.01735 0,-30.40235l-6.29883,-6.29883l10.49804,-10.49805c2.11962,-2.06035 2.75694,-5.21064 1.60486,-7.93287c-1.15207,-2.72224 -3.85719,-4.45797 -6.81189,-4.37084zM35.76335,64.43001c-2.91628,0.00077 -5.54133,1.76841 -6.6387,4.47035c-1.09737,2.70194 -0.44825,5.79937 1.64163,7.83336l5.68294,5.68294l-15.81706,15.81706c-8.385,8.385 -8.385,22.01735 0,30.40235l6.29883,6.29883l-10.49805,10.49805c-1.8722,1.79752 -2.62637,4.46674 -1.97164,6.97823c0.65473,2.51149 2.61604,4.4728 5.12753,5.12753c2.51149,0.65473 5.18071,-0.09944 6.97823,-1.97165l10.49805,-10.49804l6.29883,6.29883c4.05633,4.05633 9.45351,6.29883 15.20117,6.29883c5.7405,0 11.14484,-2.23533 15.20117,-6.29883l15.81706,-15.81706l5.68294,5.68294c1.79752,1.87223 4.46675,2.62641 6.97825,1.97168c2.5115,-0.65472 4.47282,-2.61605 5.12755,-5.12755c0.65472,-2.5115 -0.09946,-5.18073 -1.97168,-6.97825l-64.5,-64.5c-1.34928,-1.38698 -3.20203,-2.16948 -5.13704,-2.1696z"></path></g></g></svg>