<svg width="30" height="130" viewBox="0 0 30 130" fill="none" xmlns="http://www.w3.org/2000/svg">
<path d="M15 0.5C7.08394 0.5 0.666687 6.91725 0.666687 14.8333C0.666687 22.7494 7.08394 29.1667 15 29.1667C22.9161 29.1667 29.3333 22.7494 29.3333 14.8333C29.3333 6.91725 22.9161 0.5 15 0.5V0.5ZM15 50.6667C7.08394 50.6667 0.666687 57.0839 0.666687 65C0.666687 72.9161 7.08394 79.3333 15 79.3333C22.9161 79.3333 29.3333 72.9161 29.3333 65C29.3333 57.0839 22.9161 50.6667 15 50.6667ZM15 100.833C7.08394 100.833 0.666687 107.251 0.666687 115.167C0.666687 123.083 7.08394 129.5 15 129.5C22.9161 129.5 29.3333 123.083 29.3333 115.167C29.3333 107.251 22.9161 100.833 15 100.833Z" fill="black"/>
</svg>
