<svg width="17" height="20" viewBox="0 0 17 20" fill="none" xmlns="http://www.w3.org/2000/svg">
<path d="M10.14 8.28306H10.815L11.2771 8.37648L15.3607 10.3718L15.409 10.3954L15.4602 10.4119C15.837 10.5332 16.073 10.8939 16.0426 11.2622L16.04 11.2931V11.3241V11.5228L15.1483 17.4625L15.1483 17.4625L15.1475 17.4681C15.1095 17.7347 14.998 17.9372 14.8274 18.0709L14.7996 18.0927L14.774 18.1169C14.6179 18.265 14.399 18.352 14.14 18.352H7.26C6.95392 18.352 6.70571 18.2449 6.53037 18.0628L6.52228 18.0544L6.51394 18.0462L1.04454 12.7063L1.44147 12.2743C1.51892 12.1999 1.67808 12.1328 1.83924 12.1415L1.85961 12.1427H1.88H2.09041L5.98258 12.9782L6.89 13.173V12.2449V1.95918C6.89 1.64354 7.01786 1.33761 7.25062 1.1096C7.48391 0.881073 7.80355 0.75 8.14 0.75C8.47645 0.75 8.79609 0.881073 9.02938 1.1096C9.26214 1.33761 9.39 1.64354 9.39 1.95918V7.53306V8.28306H10.14Z" stroke="black" stroke-opacity="0.6" stroke-width="1.5"/>
</svg>
