<svg width="128" height="138" viewBox="0 0 128 138" fill="none" xmlns="http://www.w3.org/2000/svg">
<path d="M64 0.200012C62.1367 0.200012 60.4027 0.691112 58.849 1.47657H58.7482L4.51669 29.3034C2.41829 30.1519 0.933359 32.1977 0.933359 34.6C0.933359 36.9851 2.39644 39.0309 4.4719 39.8966V40.0086L58.793 67.7458L58.8378 67.7234C60.3973 68.5146 62.131 69 64 69C65.8691 69 67.6028 68.5146 69.1623 67.7234L69.207 67.7458L123.528 40.0086V39.8966C125.604 39.0309 127.067 36.9851 127.067 34.6C127.067 32.1977 125.582 30.1519 123.483 29.3034L69.2518 1.47657H69.1511C67.5973 0.691102 65.8633 0.200012 64 0.200012V0.200012ZM15.1323 58.2612L4.51668 63.7034C2.41828 64.5519 0.93335 66.5978 0.93335 69C0.93335 71.3851 2.39643 73.4309 4.47189 74.2966V74.4086L58.793 102.146L58.8378 102.123C60.3972 102.915 62.131 103.4 64 103.4C65.8691 103.4 67.6028 102.915 69.1622 102.123L69.207 102.146L123.528 74.4086V74.2966C125.604 73.4309 127.067 71.3851 127.067 69C127.067 66.5977 125.582 64.5519 123.483 63.7034L112.868 58.2612C96.2124 66.7867 73.4796 78.3872 73.2159 78.4846C70.2632 79.8033 67.1705 80.4667 64 80.4667C60.818 80.4667 57.7147 79.7978 54.7505 78.4734C54.4983 78.3817 31.7934 66.7924 15.1323 58.2612H15.1323ZM15.1323 92.6612L4.51668 98.1034C2.41828 98.9519 0.93335 100.998 0.93335 103.4C0.93335 105.785 2.39643 107.831 4.47189 108.697V108.809L58.793 136.546L58.8378 136.523C60.3972 137.315 62.131 137.8 64 137.8C65.8691 137.8 67.6028 137.315 69.1622 136.523L69.207 136.546L123.528 108.809V108.697C125.604 107.831 127.067 105.785 127.067 103.4C127.067 100.998 125.582 98.9519 123.483 98.1034L112.868 92.6612C96.2124 101.187 73.4796 112.787 73.2159 112.885C70.2632 114.203 67.1705 114.867 64 114.867C60.818 114.867 57.7147 114.198 54.7505 112.873C54.4983 112.782 31.7934 101.192 15.1323 92.6612H15.1323Z" fill="black"/>
</svg>
