<svg width="144" height="102" viewBox="0 0 144 102" fill="none" xmlns="http://www.w3.org/2000/svg">
<path d="M7.5 0.833327C4.91544 0.796777 2.51142 2.15469 1.20847 4.38709C-0.0944753 6.61949 -0.0944753 9.38051 1.20847 11.6129C2.51142 13.8453 4.91544 15.2032 7.5 15.1667H136.5C139.085 15.2032 141.489 13.8453 142.792 11.6129C144.094 9.38051 144.094 6.61949 142.792 4.38709C141.489 2.15469 139.085 0.796777 136.5 0.833327H7.5ZM7.5 43.8333C4.91544 43.7968 2.51142 45.1547 1.20847 47.3871C-0.0944753 49.6195 -0.0944753 52.3805 1.20847 54.6129C2.51142 56.8453 4.91544 58.2032 7.5 58.1667H136.5C139.085 58.2032 141.489 56.8453 142.792 54.6129C144.094 52.3805 144.094 49.6195 142.792 47.3871C141.489 45.1547 139.085 43.7968 136.5 43.8333H7.5ZM7.5 86.8333C4.91544 86.7968 2.51142 88.1547 1.20847 90.3871C-0.0944753 92.6195 -0.0944753 95.3805 1.20847 97.6129C2.51142 99.8453 4.91544 101.203 7.5 101.167H136.5C139.085 101.203 141.489 99.8453 142.792 97.6129C144.094 95.3805 144.094 92.6195 142.792 90.3871C141.489 88.1547 139.085 86.7968 136.5 86.8333H7.5Z" fill="black"/>
</svg>
