<svg width="144" height="115" viewBox="0 0 144 115" fill="none" xmlns="http://www.w3.org/2000/svg">
<path d="M66.6136 3.05176e-05C65.3809 3.05176e-05 64.1251 0.466091 63.1003 1.48375L28.6667 35.9173H14.3333C6.41416 35.9173 0 42.3315 0 50.2507V64.584C0 72.5032 6.41417 78.9173 14.3333 78.9173H28.6667L63.1003 113.351C64.1251 114.376 65.3809 114.835 66.6136 114.835C69.1936 114.835 71.6667 112.834 71.6667 109.81V5.02507C71.6667 2.00074 69.1936 0 66.6136 0V3.05176e-05ZM93.0967 28.6807C90.1804 28.6815 87.5553 30.4491 86.458 33.1511C85.3606 35.853 86.0097 38.9504 88.0996 40.9844L104.533 57.4174L88.0996 73.8503C86.2274 75.6478 85.4732 78.317 86.1279 80.8285C86.7826 83.34 88.744 85.3014 91.2555 85.9561C93.767 86.6108 96.4362 85.8566 98.2337 83.9844L114.667 67.5515L131.1 83.9844C132.897 85.8566 135.566 86.6108 138.078 85.9561C140.589 85.3014 142.551 83.34 143.205 80.8285C143.86 78.317 143.106 75.6478 141.234 73.8503L124.801 57.4174L141.234 40.9844C143.353 38.9241 143.991 35.7738 142.839 33.0515C141.687 30.3293 138.981 28.5936 136.027 28.6807C134.165 28.7362 132.398 29.5143 131.1 30.8503L114.667 47.2832L98.2337 30.8503C96.8845 29.4633 95.0317 28.6808 93.0967 28.6807H93.0967Z" fill="black"/>
</svg>
