<svg width="18" height="16" viewBox="0 0 18 16" fill="none" xmlns="http://www.w3.org/2000/svg">
<path d="M3.71899 11.543L4.56738 12.3914L5.98135 13.0984L7.25393 12.957L8.38511 12.1086L9.51629 10.4119" stroke="black" stroke-width="0.5"/>
<path d="M13.7582 11.6247L12.8891 12.4285L11.4406 13.0983L10.137 12.9643L8.97826 12.1606L7.81949 10.5531" stroke="black" stroke-width="0.5"/>
<path d="M7.53674 12.6741V13.6639V14.5123L7.81954 14.9365L8.52652 15.2193L9.09211 15.0779L9.51631 14.7951L9.6577 14.2295V13.3811V12.5327" stroke="black" stroke-width="0.5"/>
<circle cx="5.9814" cy="7.58382" r="0.706987" fill="black"/>
<circle cx="11.3544" cy="7.58382" r="0.706987" fill="black"/>
<path d="M4.21387 6.50572L5.69854 5.39221L7.18321 5.76338" stroke="black" stroke-width="0.5"/>
<path d="M13.1218 6.50572L11.6372 5.39221L10.1525 5.76338" stroke="black" stroke-width="0.5"/>
<path d="M1.62745 14.4902L1 12.9216L1.31373 7.58824L2.88235 4.45098L4.13726 1L5.39216 3.82353H9.47059" stroke="black" stroke-width="0.5"/>
<path d="M16.3725 14.4902L17 12.9216L16.6863 7.58824L15.1176 4.45098L13.8627 1L12.6078 3.82353H8.52941" stroke="black" stroke-width="0.5"/>
</svg>
