<svg width="144" height="144" viewBox="0 0 144 144" fill="none" xmlns="http://www.w3.org/2000/svg">
<path d="M131.895 0.38935C130.902 0.29853 129.898 0.317799 128.885 0.459339C112.49 2.75942 77.267 7.82726 41.1777 50.5H26.2565C23.7696 50.5 21.3909 51.5218 19.6637 53.3135L3.18877 70.4603C0.522765 73.1263 -0.274525 77.1043 1.17314 80.5944C2.61364 84.0846 5.9907 86.3334 9.76753 86.3334H27.3903C25.0161 89.0151 23.7689 91.8676 22.4352 95.1097C20.9585 98.6993 19.6575 102.658 18.5439 106.406C16.3167 113.901 14.8346 120.613 14.8346 120.613C14.3025 123.005 15.0299 125.504 16.7629 127.237C18.496 128.97 20.9945 129.697 23.387 129.165C23.387 129.165 30.0985 127.683 37.5944 125.456C41.3423 124.342 45.3006 123.042 48.8903 121.565C52.1324 120.231 54.9849 118.984 57.6666 116.61V134.232C57.6666 138.009 59.9154 141.394 63.4056 142.827C64.5881 143.321 65.8197 143.541 67.0309 143.541C69.4031 143.541 71.6964 142.662 73.3017 141.049L90.5045 125.372C92.4108 123.638 93.4999 121.184 93.4999 118.611V102.822C136.155 66.7374 141.235 31.509 143.541 15.1146C144.107 11.044 142.776 7.04318 139.873 4.14068C137.691 1.95843 134.874 0.66182 131.895 0.38938V0.38935ZM104.25 29C110.184 29 115 33.816 115 39.75C115 45.684 110.184 50.5 104.25 50.5C98.3159 50.5 93.4999 45.684 93.4999 39.75C93.4999 33.816 98.3159 29 104.25 29ZM75.5833 57.6667C81.5173 57.6667 86.3333 62.4827 86.3333 68.4167C86.3333 74.3507 81.5173 79.1667 75.5833 79.1667C69.6493 79.1667 64.8333 74.3507 64.8333 68.4167C64.8333 62.4827 69.6493 57.6667 75.5833 57.6667ZM40.7578 93.1081L50.8919 103.242L48.4003 105.734C48.5302 105.604 46.2977 107.13 43.4313 108.309C40.5648 109.488 36.9679 110.682 33.5071 111.711C32.6425 111.968 32.6897 111.91 31.8554 112.145C32.0904 111.31 32.0324 111.357 32.2893 110.493C33.3177 107.032 34.5115 103.435 35.6907 100.569C36.8699 97.7023 38.3961 95.4698 38.2662 95.5996L40.7578 93.1081Z" fill="black"/>
</svg>
