<svg width="20" height="20" viewBox="0 0 20 20" fill="none" xmlns="http://www.w3.org/2000/svg">
<path d="M17.14 10.9359C17.176 10.6359 17.2 10.3239 17.2 9.99993C17.2 9.67593 17.176 9.36393 17.128 9.06393L19.156 7.47993C19.243 7.40705 19.3024 7.30653 19.3242 7.19515C19.3461 7.08377 19.329 6.96828 19.276 6.86793L17.356 3.54393C17.236 3.32793 16.984 3.25593 16.768 3.32793L14.38 4.28793C13.8841 3.90515 13.3393 3.59036 12.76 3.35193L12.4 0.807933C12.3826 0.693476 12.3245 0.589147 12.2363 0.514171C12.1481 0.439196 12.0358 0.398624 11.92 0.399933H8.07999C7.96554 0.398772 7.85465 0.439683 7.76837 0.514897C7.6821 0.590112 7.62645 0.694391 7.61199 0.807933L7.25199 3.35193C6.67368 3.59234 6.1291 3.90698 5.63199 4.28793L3.24399 3.32793C3.13646 3.28648 3.01752 3.28553 2.90934 3.32527C2.80116 3.36501 2.71112 3.44272 2.65599 3.54393L0.735992 6.86793C0.676613 6.96668 0.656012 7.08396 0.678183 7.19703C0.700355 7.31011 0.763719 7.41092 0.855992 7.47993L2.88399 9.06393C2.83599 9.36393 2.79999 9.68793 2.79999 9.99993C2.79999 10.3119 2.82399 10.6359 2.87199 10.9359L0.843992 12.5199C0.756988 12.5928 0.697612 12.6933 0.675773 12.8047C0.653934 12.9161 0.670954 13.0316 0.723992 13.1319L2.64399 16.4559C2.76399 16.6719 3.01599 16.7439 3.23199 16.6719L5.61999 15.7119C6.11588 16.0947 6.6607 16.4095 7.23999 16.6479L7.59999 19.1919C7.64799 19.4319 7.83999 19.5999 8.07999 19.5999H11.92C12.16 19.5999 12.364 19.4319 12.388 19.1919L12.748 16.6479C13.3263 16.4075 13.8709 16.0929 14.368 15.7119L16.756 16.6719C16.972 16.7559 17.224 16.6719 17.344 16.4559L19.264 13.1319C19.3234 13.0332 19.344 12.9159 19.3218 12.8028C19.2996 12.6898 19.2363 12.5889 19.144 12.5199L17.14 10.9359ZM9.99999 13.5999C8.01999 13.5999 6.39999 11.9799 6.39999 9.99993C6.39999 8.01993 8.01999 6.39993 9.99999 6.39993C11.98 6.39993 13.6 8.01993 13.6 9.99993C13.6 11.9799 11.98 13.5999 9.99999 13.5999Z" fill="black" fill-opacity="0.6"/>
</svg>
