<svg width="143" height="115" viewBox="0 0 143 115" fill="none" xmlns="http://www.w3.org/2000/svg">
<path d="M107.599 26.3546C105.483 23.6286 101.488 23.6476 99.0495 26.0891V26.0891C96.6155 28.5261 96.6687 32.4501 98.6729 35.2512C107.973 48.2494 107.973 65.7541 98.6742 78.7486C96.6695 81.5499 96.616 85.4745 99.0503 87.9119V87.9119C101.488 90.3531 105.483 90.3724 107.599 87.6471C121.53 69.7011 121.529 44.3049 107.599 26.3546ZM89.639 44.2626C87.8875 41.2897 83.8437 41.3143 81.4054 43.7557V43.7557C78.9715 46.1928 79.188 50.1583 80.1771 53.4575C80.8702 55.769 80.8702 58.2312 80.1771 60.5426C79.1878 63.8425 78.9696 67.8082 81.4023 70.2475V70.2475C83.8419 72.6935 87.8908 72.7194 89.6434 69.7423C94.2442 61.9271 94.2428 52.0765 89.639 44.2626Z" fill="black"/>
<path d="M66.6136 0C65.3809 0 64.1251 0.466061 63.1003 1.48372L28.6667 35.9173H14.3333C6.41416 35.9173 0 42.3315 0 50.2506V64.584C0 72.5031 6.41417 78.9173 14.3333 78.9173H28.6667L63.1003 113.351C64.1251 114.376 65.3809 114.835 66.6136 114.835C69.1936 114.835 71.6667 112.834 71.6667 109.81V5.02504C71.6667 2.00071 69.1936 0 66.6136 0Z" fill="black"/>
</svg>
