<svg width="143" height="115" viewBox="0 0 143 115" fill="none" xmlns="http://www.w3.org/2000/svg">
<path d="M89.639 44.2624C87.8875 41.2895 83.8437 41.3141 81.4054 43.7556V43.7556C78.9715 46.1926 79.188 50.1581 80.1771 53.4573C80.8702 55.7688 80.8702 58.231 80.1771 60.5425C79.1878 63.8424 78.9696 67.8081 81.4023 70.2473V70.2473C83.8419 72.6933 87.8908 72.7192 89.6434 69.7422C94.2442 61.927 94.2428 52.0763 89.639 44.2624Z" fill="black"/>
<path d="M66.6136 0C65.3809 0 64.1251 0.466061 63.1003 1.48372L28.6667 35.9173H14.3333C6.41416 35.9173 0 42.3315 0 50.2506V64.584C0 72.5031 6.41417 78.9173 14.3333 78.9173H28.6667L63.1003 113.351C64.1251 114.376 65.3809 114.835 66.6136 114.835C69.1936 114.835 71.6667 112.834 71.6667 109.81V5.02504C71.6667 2.00071 69.1936 0 66.6136 0Z" fill="black"/>
</svg>
