<svg width="143" height="115" viewBox="0 0 143 115" fill="none" xmlns="http://www.w3.org/2000/svg">
<path d="M125.343 8.60323C123.115 5.96853 119.132 5.98085 116.694 8.42231V8.42231C114.26 10.8594 114.288 14.7899 116.472 17.4535C135.311 40.4327 135.311 73.5718 116.473 96.5463C114.289 99.21 114.26 103.141 116.694 105.578V105.578C119.132 108.019 123.115 108.032 125.343 105.398C148.886 77.5641 148.885 36.4418 125.343 8.60323ZM107.599 26.3545C105.483 23.6285 101.488 23.6475 99.0495 26.089V26.089C96.6155 28.526 96.6687 32.45 98.6729 35.2511C107.973 48.2493 107.973 65.754 98.6742 78.7485C96.6695 81.5498 96.616 85.4745 99.0503 87.9118V87.9118C101.488 90.353 105.483 90.3723 107.599 87.647C121.53 69.701 121.529 44.3048 107.599 26.3545ZM89.639 44.2625C87.8875 41.2896 83.8437 41.3142 81.4054 43.7556V43.7556C78.9714 46.1927 79.188 50.1582 80.1771 53.4574C80.8702 55.7689 80.8702 58.2311 80.1771 60.5426C79.1878 63.8424 78.9696 67.8082 81.4023 70.2474V70.2474C83.8419 72.6934 87.8908 72.7193 89.6434 69.7423C94.2442 61.9271 94.2428 52.0764 89.639 44.2625Z" fill="black"/>
<path d="M66.6136 0C65.3809 0 64.1251 0.466061 63.1003 1.48372L28.6667 35.9173H14.3333C6.41416 35.9173 0 42.3315 0 50.2506V64.584C0 72.5031 6.41417 78.9173 14.3333 78.9173H28.6667L63.1003 113.351C64.1251 114.376 65.3809 114.835 66.6136 114.835C69.1936 114.835 71.6667 112.834 71.6667 109.81V5.02504C71.6667 2.00071 69.1936 0 66.6136 0Z" fill="black"/>
</svg>
