<svg width="138" height="130" viewBox="0 0 138 130" fill="none" xmlns="http://www.w3.org/2000/svg">
<path d="M20.6251 0.5C19.946 0.5 19.278 0.53756 18.6164 0.60498C17.2979 0.73936 16.0176 1.00643 14.7882 1.38883C8.61094 3.31021 3.72695 8.1942 1.80558 14.3714C1.42317 15.6008 1.15611 16.8811 1.02173 18.1997C1.02149 18.202 1.02197 18.2044 1.02173 18.2067C0.954769 18.866 0.916748 19.5316 0.916748 20.2083V27.375V109.792C0.916748 120.613 9.80423 129.5 20.6251 129.5H117.375C128.196 129.5 137.083 120.613 137.083 109.792V27.375V20.2083C137.083 19.5297 137.047 18.8614 136.978 18.1997C136.844 16.8811 136.577 15.6008 136.195 14.3714C134.273 8.19419 129.389 3.3102 123.212 1.38883C121.983 1.00642 120.702 0.73936 119.384 0.60498C119.381 0.60475 119.379 0.60521 119.377 0.60498C118.717 0.53724 118.051 0.5 117.375 0.5H20.6251ZM99.4584 11.25C102.425 11.25 104.833 13.658 104.833 16.625C104.833 19.592 102.425 22 99.4584 22C96.4914 22 94.0834 19.592 94.0834 16.625C94.0834 13.658 96.4914 11.25 99.4584 11.25ZM117.375 11.25C120.342 11.25 122.75 13.658 122.75 16.625C122.75 19.592 120.342 22 117.375 22C114.408 22 112 19.592 112 16.625C112 13.658 114.408 11.25 117.375 11.25ZM11.6667 32.75H126.333V109.792C126.333 114.802 122.385 118.75 117.375 118.75H20.6251C15.6148 118.75 11.6668 114.802 11.6668 109.792L11.6667 32.75Z" fill="black"/>
<path d="M34.9883 55.7344L60 76.7754L34.9883 97.8535L29.2363 91.9902L47.6055 76.8496L29.2363 61.5977L34.9883 55.7344Z" fill="black"/>
<path d="M69 102.215V95.0527H110.785V102.215H69Z" fill="black"/>
</svg>
