<svg version="1.1" xmlns="http://www.w3.org/2000/svg" xmlns:xlink="http://www.w3.org/1999/xlink" viewBox="0 0 172 172"><g fill="none" fill-rule="nonzero" stroke="none" stroke-width="1" stroke-linecap="butt" stroke-linejoin="miter" stroke-miterlimit="10" stroke-dasharray="" stroke-dashoffset="0" font-family="none" font-weight="none" font-size="none" text-anchor="none" style="mix-blend-mode: normal"><g fill="#000000"><path d="M64.5,14.33333h-35.83333c-7.90483,0 -14.33333,6.4285 -14.33333,14.33333v50.16667c0,7.90483 6.4285,14.33333 14.33333,14.33333h35.83333c7.90483,0 14.33333,-6.4285 14.33333,-14.33333v-50.16667c0,-7.90483 -6.4285,-14.33333 -14.33333,-14.33333zM143.33333,14.33333h-35.83333c-7.90483,0 -14.33333,6.4285 -14.33333,14.33333v21.5c0,7.90483 6.4285,14.33333 14.33333,14.33333h35.83333c7.90483,0 14.33333,-6.4285 14.33333,-14.33333v-21.5c0,-7.90483 -6.4285,-14.33333 -14.33333,-14.33333zM64.5,107.5h-35.83333c-7.90483,0 -14.33333,6.4285 -14.33333,14.33333v21.5c0,7.90483 6.4285,14.33333 14.33333,14.33333h35.83333c7.90483,0 14.33333,-6.4285 14.33333,-14.33333v-21.5c0,-7.90483 -6.4285,-14.33333 -14.33333,-14.33333zM143.33333,78.83333h-35.83333c-7.90483,0 -14.33333,6.4285 -14.33333,14.33333v50.16667c0,7.90483 6.4285,14.33333 14.33333,14.33333h35.83333c7.90483,0 14.33333,-6.4285 14.33333,-14.33333v-50.16667c0,-7.90483 -6.4285,-14.33333 -14.33333,-14.33333z"></path></g></g></svg>