<svg version="1.1" xmlns="http://www.w3.org/2000/svg" xmlns:xlink="http://www.w3.org/1999/xlink" viewBox="0 0 172 172"><g fill="none" fill-rule="nonzero" stroke="none" stroke-width="1" stroke-linecap="butt" stroke-linejoin="miter" stroke-miterlimit="10" stroke-dasharray="" stroke-dashoffset="0" font-family="none" font-weight="none" font-size="none" text-anchor="none" style="mix-blend-mode: normal"><g fill="#000000"><path d="M37.625,21.5c-0.67904,0 -1.34704,0.03756 -2.00863,0.10498c-1.31857,0.13438 -2.59886,0.40145 -3.82829,0.78385c-6.17722,1.92138 -11.06121,6.80537 -12.98258,12.98258c-0.38241,1.22943 -0.64947,2.50972 -0.78385,3.82829c-0.00024,0.00231 0.00024,0.00469 0,0.007c-0.06696,0.65935 -0.10498,1.32494 -0.10498,2.00163v7.16667v82.41667c0,10.82086 8.88748,19.70833 19.70833,19.70833h96.75c10.82086,0 19.70833,-8.88748 19.70833,-19.70833v-82.41667v-7.16667c0,-0.67867 -0.03678,-1.34688 -0.10498,-2.00863c-0.13438,-1.31857 -0.40145,-2.59886 -0.78385,-3.82829c-1.92138,-6.17722 -6.80537,-11.06121 -12.98259,-12.98258c-1.22943,-0.38241 -2.50972,-0.64947 -3.82829,-0.78385c-0.0023,-0.00023 -0.0047,0.00023 -0.007,0c-0.6595,-0.06774 -1.32532,-0.10498 -2.00163,-0.10498zM116.45833,32.25c2.967,0 5.375,2.408 5.375,5.375c0,2.967 -2.408,5.375 -5.375,5.375c-2.967,0 -5.375,-2.408 -5.375,-5.375c0,-2.967 2.408,-5.375 5.375,-5.375zM134.375,32.25c2.967,0 5.375,2.408 5.375,5.375c0,2.967 -2.408,5.375 -5.375,5.375c-2.967,0 -5.375,-2.408 -5.375,-5.375c0,-2.967 2.408,-5.375 5.375,-5.375zM28.66667,53.75h114.66667v77.04167c0,5.01031 -3.94802,8.95833 -8.95833,8.95833h-96.75c-5.01031,0 -8.95833,-3.94802 -8.95833,-8.95833z"></path></g></g></svg>