<svg version="1.1" xmlns="http://www.w3.org/2000/svg" xmlns:xlink="http://www.w3.org/1999/xlink" viewBox="0 0 172 172"><g fill="none" fill-rule="nonzero" stroke="none" stroke-width="1" stroke-linecap="butt" stroke-linejoin="miter" stroke-miterlimit="10" stroke-dasharray="" stroke-dashoffset="0" font-family="none" font-weight="none" font-size="none" text-anchor="none" style="mix-blend-mode: normal"><g fill="#000000"><path d="M19.84615,0c-10.95673,0 -19.84615,8.88942 -19.84615,19.84615v86c0,10.95673 8.88942,19.84615 19.84615,19.84615h6.61538v-13.23077h-6.61538c-3.64363,0 -6.61538,-2.97176 -6.61538,-6.61538v-86c0,-3.64363 2.97176,-6.61538 6.61538,-6.61538h92.61538c3.64363,0 6.61538,2.97176 6.61538,6.61538v19.84615h13.23077v-19.84615c0,-10.95673 -8.88942,-19.84615 -19.84615,-19.84615zM52.92308,46.30769c-10.95673,0 -19.84615,8.88942 -19.84615,19.84615v86c0,10.95673 8.88942,19.84615 19.84615,19.84615h99.23077c10.95673,0 19.84615,-8.88942 19.84615,-19.84615v-86c0,-10.95673 -8.88942,-19.84615 -19.84615,-19.84615zM52.92308,59.53846h99.23077c3.64363,0 6.61538,2.97176 6.61538,6.61538v86c0,3.64363 -2.97176,6.61538 -6.61538,6.61538h-99.23077c-3.64363,0 -6.61538,-2.97176 -6.61538,-6.61538v-86c0,-3.64363 2.97176,-6.61538 6.61538,-6.61538z"></path></g></g></svg>