<svg width="257" height="48" viewBox="0 0 257 48" fill="none" xmlns="http://www.w3.org/2000/svg">
<g clip-path="url(#clip0)">
<path d="M92.5 2.4L92.2 46.9H102.9L103 12.2L119.5 12.1L124.8 2.4H92.5Z" fill="white"/>
<path d="M202.7 2.4V19.6H183.9L183.8 2.4H173.3V46.9H183.8V29.3H202.7V46.9H213.5L213.4 2.4H202.7Z" fill="white"/>
<path d="M67.3 0.599998H67.4L89.3 46.8H77.5L67.3 23L57.1 46.8H45.3L67.3 0.599998Z" fill="white"/>
<path d="M237.7 2.5H219.4V12.2H231L230.8 46.9H241.5L241.7 12.3L251.7 12.2L257 2.5H237.7Z" fill="white"/>
<path d="M32.4 46.9H43.9L22 0.699998V0.599998V0.699998L0 46.8H11.5L14.2 40.8H29.7L32.4 46.9ZM17.7 32.4L22 23L26.3 32.4H17.7Z" fill="white"/>
<path d="M167.3 24.7C167.3 12 157 1.7 144.3 1.7C131.6 1.7 121.3 12 121.3 24.7C121.3 37.4 131.6 47.7 144.3 47.7C157 47.7 167.3 37.4 167.3 24.7ZM153.7 34.2C151.2 36.7 147.9 38.1 144.4 38.1C140.9 38.1 137.5 36.6 135.1 34.2C132.6 31.7 131.1 28.3 131.1 24.7C131.1 21.1 132.5 17.8 135.1 15.2C137.6 12.7 140.9 11.4 144.4 11.3C147.9 11.4 151.3 12.7 153.7 15.2C156.2 17.7 157.7 21.1 157.7 24.7C157.7 28.3 156.2 31.6 153.7 34.2Z" fill="white"/>
</g>
<defs>
<clipPath id="clip0">
<rect width="257" height="48" fill="white"/>
</clipPath>
</defs>
</svg>
